<svg xmlns="http://www.w3.org/2000/svg" viewBox="0 0 48 48">
  <!-- гадательные костяные фишки -->
  <circle cx="16" cy="18" r="8" fill="#f0e4c8" stroke="#33261c" stroke-width="1.8"/>
  <circle cx="33" cy="18" r="8" fill="#f0e4c8" stroke="#33261c" stroke-width="1.8"/>
  <!-- руна Беркана (дочь) слева -->
  <g fill="none" stroke="#8f2f24" stroke-width="2" stroke-linecap="round" stroke-linejoin="round">
    <path d="M13.5 12.5v11M13.5 13.5l5 4-5 4"/>
  </g>
  <!-- руна Тейваз (сын) справа -->
  <g fill="none" stroke="#2e5d8a" stroke-width="2" stroke-linecap="round" stroke-linejoin="round">
    <path d="M33 12.5v11M29 14.5l4 2.6 4-2.6"/>
  </g>
  <!-- вопросительная искра между -->
  <path d="M24 8.5c1.6 0 2.8 1 2.8 2.3 0 1.8-1.9 2.2-2.8 3.5v1.2" fill="none" stroke="#e0a832" stroke-width="2" stroke-linecap="round"/>
  <circle cx="24" cy="18" r="1.2" fill="#e0a832"/>
  <!-- клубок пряжи вёльвы -->
  <circle cx="24" cy="36" r="7" fill="#9d6b9e" stroke="#33261c" stroke-width="1.8"/>
  <path d="M18.5 33.5c3-2 8-2 11 0M18 37c3.5-2.5 8.5-2.5 12 0M19.5 40c3-1.8 6.5-1.8 9 0" fill="none" stroke="#7c4f7d" stroke-width="1.3" stroke-linecap="round"/>
  <path d="M30 39.5c2.5 1.5 4.5 1 6-.5" fill="none" stroke="#7c4f7d" stroke-width="1.5" stroke-linecap="round"/>
  <!-- веретено -->
  <path d="M10 30l-3 8M8.5 34.5h4" stroke="#8a5a33" stroke-width="1.8" stroke-linecap="round"/>
</svg>
