<svg xmlns="http://www.w3.org/2000/svg" viewBox="0 0 48 48">
  <!-- полнолуние: светлый диск с золотым ободом -->
  <circle cx="24" cy="24" r="17" fill="#e0a832"/>
  <circle cx="24" cy="24" r="16" fill="#f2ecd8" stroke="#33261c" stroke-width="2"/>
  <!-- лунные пятна -->
  <circle cx="18" cy="17" r="3.4" fill="#ddd6bd"/>
  <circle cx="30" cy="15" r="2.2" fill="#ddd6bd"/>
  <circle cx="32" cy="27" r="3" fill="#ddd6bd"/>
  <circle cx="20" cy="30" r="2.6" fill="#ddd6bd"/>
  <circle cx="26" cy="22" r="1.6" fill="#ddd6bd"/>
  <circle cx="14" cy="25" r="1.5" fill="#ddd6bd"/>
  <!-- пунктирный орнамент по краю -->
  <circle cx="24" cy="24" r="13.4" fill="none" stroke="#d9c9a3" stroke-width="1.2" stroke-dasharray="1.5 3"/>
  <!-- звёзды вокруг -->
  <g fill="#f2cd72">
    <path d="M7 9l.8 1.7 1.7.8-1.7.8L7 14l-.8-1.7-1.7-.8 1.7-.8z"/>
    <path d="M41 8l.7 1.5 1.5.7-1.5.7L41 12l-.7-1.5-1.5-.7 1.5-.7z"/>
    <path d="M42 37l.7 1.5 1.5.7-1.5.7-.7 1.5-.7-1.5-1.5-.7 1.5-.7z"/>
    <path d="M6 36l.7 1.5 1.5.7-1.5.7L6 40.4l-.7-1.5-1.5-.7 1.5-.7z"/>
  </g>
</svg>
