<svg xmlns="http://www.w3.org/2000/svg" viewBox="0 0 48 48">
  <!-- растущая луна: правая половина светлая -->
  <circle cx="24" cy="24" r="16" fill="#2c3145" stroke="#33261c" stroke-width="2"/>
  <path d="M24 8a16 16 0 0 1 0 32 26 26 0 0 0 0-32z" fill="#e8e4d2"/>
  <!-- терминатор с мягкой ступенькой -->
  <path d="M24 8a26 26 0 0 1 0 32" fill="none" stroke="#c9c4ae" stroke-width="1.2"/>
  <!-- кратеры на светлой части -->
  <circle cx="31" cy="18" r="2.4" fill="#d3cdb6"/>
  <circle cx="33" cy="28" r="1.7" fill="#d3cdb6"/>
  <circle cx="28.5" cy="33" r="1.2" fill="#d3cdb6"/>
  <!-- кратеры на тёмной части -->
  <circle cx="15" cy="21" r="2" fill="#3d4358"/>
  <circle cx="18" cy="31" r="1.4" fill="#3d4358"/>
  <!-- звёзды -->
  <g fill="#f2cd72">
    <path d="M7 12l.8 1.7 1.7.8-1.7.8L7 17l-.8-1.7-1.7-.8 1.7-.8z"/>
    <path d="M42 33l.7 1.5 1.5.7-1.5.7-.7 1.5-.7-1.5-1.5-.7 1.5-.7z"/>
  </g>
  <circle cx="40" cy="9" r="1.1" fill="#f2cd72"/>
</svg>
