<svg xmlns="http://www.w3.org/2000/svg" viewBox="0 0 48 48">
  <!-- солнце за травой -->
  <circle cx="24" cy="19" r="9" fill="#f2cd72" stroke="#33261c" stroke-width="1.8"/>
  <circle cx="24" cy="19" r="4.8" fill="#e8b84b"/>
  <g stroke="#e8b84b" stroke-width="2.2" stroke-linecap="round">
    <path d="M24 5.5V8M33.5 9.5l-1.8 1.8M37.5 19H35M14.5 9.5l1.8 1.8M10.5 19H13"/>
  </g>
  <!-- земляной валик -->
  <path d="M5 33.5c6-3.5 12-4.5 19-4.5s13 1 19 4.5V43H5z" fill="#5d4028" stroke="#33261c" stroke-width="1.8" stroke-linejoin="round"/>
  <path d="M5 33.5c6-3.5 12-4.5 19-4.5s13 1 19 4.5" fill="none" stroke="#8a5a33" stroke-width="1.4"/>
  <!-- травинки -->
  <g stroke="#3c6134" stroke-width="2" stroke-linecap="round" fill="none">
    <path d="M11 33c0-4 1.5-7 1.5-7M15.5 32.5c-.5-4.5-2-7.5-2-7.5M32.5 32.5c.5-4.5 2-7.5 2-7.5M37 33c0-4-1.5-7-1.5-7"/>
  </g>
  <!-- центральный стебель с листьями -->
  <path d="M24 43V21" stroke="#3c6134" stroke-width="2.4" stroke-linecap="round"/>
  <path d="M24 28c-3.5 0-6-2-6.8-5 3.5 0 6 2 6.8 5z" fill="#5a8f4f" stroke="#33261c" stroke-width="1.3" stroke-linejoin="round"/>
  <path d="M24 33c3.5 0 6-2 6.8-5-3.5 0-6 2-6.8 5z" fill="#5a8f4f" stroke="#33261c" stroke-width="1.3" stroke-linejoin="round"/>
  <!-- цветок -->
  <g stroke="#33261c" stroke-width="1.2">
    <circle cx="24" cy="18.5" r="2" fill="#e0a832"/>
    <circle cx="24" cy="14.6" r="1.9" fill="#d96a4a"/>
    <circle cx="27.4" cy="16.5" r="1.9" fill="#d96a4a"/>
    <circle cx="27.4" cy="20.6" r="1.9" fill="#d96a4a"/>
    <circle cx="24" cy="22.5" r="1.9" fill="#d96a4a"/>
    <circle cx="20.6" cy="20.6" r="1.9" fill="#d96a4a"/>
    <circle cx="20.6" cy="16.5" r="1.9" fill="#d96a4a"/>
  </g>
</svg>
