<svg xmlns="http://www.w3.org/2000/svg" viewBox="0 0 48 48">
  <!-- лучи солнца (8 треугольников) -->
  <g fill="#e8b84b" stroke="#33261c" stroke-width="1.2" stroke-linejoin="round">
    <path d="M24 12l2.4 4.6h-4.8z"/>
    <path d="M24 12l2.4 4.6h-4.8z" transform="rotate(45 24 27)"/>
    <path d="M24 12l2.4 4.6h-4.8z" transform="rotate(90 24 27)"/>
    <path d="M24 12l2.4 4.6h-4.8z" transform="rotate(135 24 27)"/>
    <path d="M24 12l2.4 4.6h-4.8z" transform="rotate(180 24 27)"/>
    <path d="M24 12l2.4 4.6h-4.8z" transform="rotate(225 24 27)"/>
    <path d="M24 12l2.4 4.6h-4.8z" transform="rotate(270 24 27)"/>
    <path d="M24 12l2.4 4.6h-4.8z" transform="rotate(315 24 27)"/>
  </g>
  <!-- диск солнца -->
  <circle cx="24" cy="27" r="8.5" fill="#f2cd72" stroke="#33261c" stroke-width="1.8"/>
  <circle cx="24" cy="27" r="4.6" fill="#e8b84b"/>
  <circle cx="24" cy="27" r="4.6" fill="none" stroke="#a8761e" stroke-width="1" stroke-dasharray="2 1.8"/>
  <!-- стрела строго вверх -->
  <path d="M24 12v30" stroke="#8f2f24" stroke-width="3" stroke-linecap="round"/>
  <path d="M24 3.5l4.6 7.2h-9.2z" fill="#8f2f24" stroke="#33261c" stroke-width="1.3" stroke-linejoin="round"/>
  <path d="M24 42l-3.6 4.2 3.6-1.7 3.6 1.7z" fill="#f0e4c8" stroke="#33261c" stroke-width="1.2" stroke-linejoin="round"/>
</svg>
